<svg width="866" height="939" viewBox="0 0 866 939" fill="none" xmlns="http://www.w3.org/2000/svg">
<path d="M108.893 186.034L433.506 373.644L757.757 187.007L758.006 186.863L758.256 187.008L865.75 249.069L866 249.213V749.437L865.751 749.581L541.751 937.581L541.004 938.015L541 937.15L540 687.15L539.999 686.86L540.25 686.716L756.501 561.859L756.996 438.013L434.009 623.216L433.759 623.359L433.51 623.215L109.5 436.147V560.861L325.252 686.717L325.501 686.861L325.5 687.149L325 936.649L324.998 937.515L324.25 937.081L0.25 749.581L0 749.437V248.869L0.249023 248.725L108.392 186.034L108.643 185.889L108.893 186.034ZM433.868 0.145508L648.621 124.714L649.366 125.146L648.621 125.579L433.868 250.148L433.617 250.294L433.367 250.148L218.039 125.58L217.291 125.147L218.039 124.715L433.367 0.145508L433.617 0L433.868 0.145508Z" fill="#C9FFE9"/>
</svg>
