<svg width="3134" height="939" viewBox="0 0 3134 939" fill="none" xmlns="http://www.w3.org/2000/svg">
<path d="M108.893 186.034L433.506 373.644L757.757 187.007L758.006 186.863L758.256 187.008L865.75 249.069L866 249.213V749.437L865.751 749.581L541.751 937.581L541.004 938.015L541 937.15L540 687.15L539.999 686.86L540.25 686.716L756.501 561.859L756.996 438.013L434.009 623.216L433.759 623.359L433.51 623.215L109.5 436.147V560.861L325.252 686.717L325.501 686.861L325.5 687.149L325 936.649L324.998 937.515L324.25 937.081L0.25 749.581L0 749.437V248.869L0.249023 248.725L108.392 186.034L108.643 185.889L108.893 186.034ZM1174.05 708.998L1231.8 551.148H1279.4L1337.5 708.998L1395.25 551.148H1448.8L1357.1 803.148H1317.9L1255.6 633.049L1193.65 803.148H1154.45L1062.75 551.148H1116.3L1174.05 708.998ZM1668.85 551.148C1677.95 551.148 1686.23 553.482 1693.7 558.148C1701.4 562.582 1707.59 568.649 1712.25 576.349C1716.92 583.815 1719.25 592.216 1719.25 601.549V752.748C1719.25 762.081 1716.92 770.599 1712.25 778.299C1707.59 785.765 1701.4 791.831 1693.7 796.498C1686.23 800.931 1677.95 803.148 1668.85 803.148H1517.65C1508.32 803.148 1499.8 800.931 1492.1 796.498C1484.64 791.831 1478.57 785.765 1473.9 778.299C1469.47 770.599 1467.25 762.081 1467.25 752.748V601.549C1467.25 592.216 1469.47 583.815 1473.9 576.349C1478.57 568.649 1484.63 562.582 1492.1 558.148C1499.8 553.482 1508.32 551.148 1517.65 551.148H1668.85ZM1959.04 551.498C1968.38 551.498 1976.78 553.832 1984.25 558.498C1991.95 562.931 1998.13 568.998 2002.79 576.698C2007.46 584.398 2009.79 592.798 2009.79 601.898V668.398C2009.79 677.498 2007.46 685.899 2002.79 693.599C1998.13 701.065 1991.95 707.132 1984.25 711.799C1976.78 716.232 1968.38 718.448 1959.04 718.448L1951.05 718.467L2009.1 787.398V803.148H1955.9L1885.01 718.62L1808.2 718.799V803.148H1757.79V551.498H1959.04ZM2097.71 651.599H2151.96L2235.96 551.148H2289.86V567.248L2197.46 677.148L2289.86 787.049V803.148H2235.96L2151.96 702.698H2097.71V803.148H2046.96V551.148H2097.71V651.599ZM2558.62 601.898H2377.32V651.599H2523.27V702.698H2377.32V752.398H2558.62V803.148H2326.22V551.148H2558.62V601.898ZM2794.74 551.498C2804.07 551.498 2812.47 553.832 2819.94 558.498C2827.64 562.931 2833.82 568.998 2838.49 576.698C2843.15 584.398 2845.49 592.798 2845.49 601.898V668.398C2845.49 677.498 2843.15 685.899 2838.49 693.599C2833.82 701.065 2827.64 707.132 2819.94 711.799C2812.47 716.232 2804.07 718.448 2794.74 718.448L2786.74 718.467L2844.79 787.398V803.148H2791.59L2720.71 718.62L2643.89 718.799V803.148H2593.49V551.498H2794.74ZM3083.21 551.148C3092.31 551.148 3100.59 553.482 3108.06 558.148C3115.76 562.582 3121.94 568.649 3126.61 576.349C3131.27 583.815 3133.61 592.216 3133.61 601.549V622.898H3082.51V603.998C3082.51 603.298 3082.27 602.832 3081.81 602.599C3081.34 602.132 3080.87 601.898 3080.41 601.898H2933.76C2933.29 601.899 2932.82 602.132 2932.36 602.599C2932.12 602.832 2932.01 603.298 2932.01 603.998V649.849C2932.01 650.315 2932.12 650.781 2932.36 651.248C2932.82 651.481 2933.29 651.599 2933.76 651.599H3083.21C3092.31 651.599 3100.59 653.932 3108.06 658.599C3115.76 663.032 3121.94 669.099 3126.61 676.799C3131.27 684.499 3133.61 692.898 3133.61 701.998V752.748C3133.61 762.081 3131.27 770.599 3126.61 778.299C3121.94 785.765 3115.76 791.831 3108.06 796.498C3100.59 800.931 3092.31 803.148 3083.21 803.148H2931.66C2922.56 803.148 2914.16 800.931 2906.46 796.498C2898.76 791.831 2892.69 785.765 2888.26 778.299C2883.82 770.599 2881.61 762.081 2881.61 752.748V731.398H2932.01V750.299C2932.01 750.999 2932.12 751.582 2932.36 752.049C2932.82 752.282 2933.29 752.398 2933.76 752.398H3080.41C3080.87 752.398 3081.34 752.282 3081.81 752.049C3082.27 751.582 3082.51 750.999 3082.51 750.299V704.448C3082.51 703.982 3082.27 703.632 3081.81 703.398C3081.34 702.932 3080.87 702.698 3080.41 702.698H2931.66C2922.56 702.698 2914.16 700.482 2906.46 696.049C2898.76 691.382 2892.69 685.198 2888.26 677.498C2883.82 669.798 2881.61 661.399 2881.61 652.299V601.549C2881.61 592.216 2883.82 583.815 2888.26 576.349C2892.69 568.649 2898.76 562.582 2906.46 558.148C2914.16 553.482 2922.56 551.148 2931.66 551.148H3083.21ZM1519.75 601.898C1519.05 601.898 1518.47 602.132 1518 602.599C1517.77 602.832 1517.65 603.298 1517.65 603.998V750.299C1517.65 750.999 1517.77 751.582 1518 752.049C1518.47 752.282 1519.05 752.398 1519.75 752.398H1666.05C1666.75 752.398 1667.22 752.282 1667.45 752.049C1667.92 751.582 1668.15 750.999 1668.15 750.299V603.998C1668.15 603.298 1667.92 602.832 1667.45 602.599C1667.22 602.132 1666.75 601.898 1666.05 601.898H1519.75ZM1810.29 601.898C1809.6 601.899 1809.01 602.132 1808.54 602.599C1808.31 602.832 1808.2 603.299 1808.2 603.998V665.948C1808.2 666.415 1808.31 666.882 1808.54 667.349C1809.01 667.582 1809.6 667.698 1810.29 667.698H1956.6C1957.3 667.698 1957.76 667.582 1958 667.349C1958.46 666.882 1958.7 666.415 1958.7 665.948V603.998C1958.7 603.298 1958.46 602.832 1958 602.599C1957.76 602.132 1957.3 601.899 1956.6 601.898H1810.29ZM2645.99 601.898C2645.29 601.899 2644.7 602.132 2644.24 602.599C2644.01 602.832 2643.89 603.299 2643.89 603.998V665.948C2643.89 666.415 2644 666.882 2644.24 667.349C2644.7 667.582 2645.29 667.698 2645.99 667.698H2792.29C2792.99 667.698 2793.46 667.582 2793.69 667.349C2794.16 666.882 2794.39 666.415 2794.39 665.948V603.998C2794.39 603.298 2794.16 602.832 2793.69 602.599C2793.46 602.132 2792.99 601.899 2792.29 601.898H2645.99ZM1271.35 151.148C1280.68 151.148 1289.08 153.482 1296.55 158.148C1304.25 162.582 1310.43 168.649 1315.1 176.349C1319.77 183.815 1322.1 192.215 1322.1 201.549V223.248H1271V203.998C1271 203.298 1270.77 202.832 1270.3 202.599C1270.07 202.132 1269.6 201.899 1268.9 201.898H1122.6C1121.9 201.899 1121.32 202.132 1120.85 202.599C1120.62 202.832 1120.5 203.299 1120.5 203.998V350.299C1120.5 350.999 1120.62 351.582 1120.85 352.049C1121.32 352.282 1121.9 352.398 1122.6 352.398H1268.9C1269.6 352.398 1270.07 352.282 1270.3 352.049C1270.77 351.582 1271 350.999 1271 350.299V308.998H1215.35V258.248H1322.1V352.748C1322.1 362.081 1319.77 370.599 1315.1 378.299C1310.43 385.765 1304.25 391.831 1296.55 396.498C1289.08 400.931 1280.68 403.148 1271.35 403.148H1120.5C1111.17 403.148 1102.65 400.931 1094.95 396.498C1087.48 391.831 1081.42 385.765 1076.75 378.299C1072.32 370.599 1070.1 362.081 1070.1 352.748V201.549C1070.1 192.216 1072.32 183.815 1076.75 176.349C1081.42 168.649 1087.48 162.582 1094.95 158.148C1102.65 153.482 1111.17 151.148 1120.5 151.148H1271.35ZM1561.53 151.148C1570.63 151.148 1578.91 153.482 1586.38 158.148C1594.08 162.582 1600.26 168.649 1604.93 176.349C1609.59 183.815 1611.93 192.216 1611.93 201.549V352.748C1611.93 362.081 1609.59 370.599 1604.93 378.299C1600.26 385.765 1594.08 391.831 1586.38 396.498C1578.91 400.931 1570.63 403.148 1561.53 403.148H1410.33C1400.99 403.148 1392.48 400.931 1384.78 396.498C1377.31 391.831 1371.24 385.765 1366.58 378.299C1362.14 370.599 1359.93 362.081 1359.93 352.748V201.549C1359.93 192.216 1362.14 183.815 1366.58 176.349C1371.24 168.649 1377.31 162.582 1384.78 158.148C1392.48 153.482 1400.99 151.148 1410.33 151.148H1561.53ZM1701.22 352.398H1902.82V403.148H1650.82V150.799H1701.22V352.398ZM2156.33 201.898H1975.03V251.599H2120.97V302.698H1975.03V352.398H2156.33V403.148H1923.92V151.148H2156.33V201.898ZM2325.77 256.498L2413.62 151.148H2467.52V403.148H2416.77V226.398L2325.77 335.248L2234.42 226.748V403.148H2184.02V151.148H2237.57L2325.77 256.498ZM1412.43 201.898C1411.73 201.898 1411.14 202.132 1410.68 202.599C1410.44 202.832 1410.33 203.298 1410.33 203.998V350.299C1410.33 350.999 1410.44 351.582 1410.68 352.049C1411.14 352.282 1411.73 352.398 1412.43 352.398H1558.73C1559.43 352.398 1559.89 352.282 1560.13 352.049C1560.59 351.582 1560.83 350.999 1560.83 350.299V203.998C1560.83 203.298 1560.59 202.832 1560.13 202.599C1559.89 202.132 1559.43 201.898 1558.73 201.898H1412.43ZM433.868 0.145508L648.621 124.714L649.366 125.146L648.621 125.579L433.868 250.148L433.617 250.294L433.367 250.148L218.039 125.58L217.291 125.147L218.039 124.715L433.367 0.145508L433.617 0L433.868 0.145508Z" fill="#C9FFE9"/>
</svg>
